<svg xmlns="http://www.w3.org/2000/svg" xmlns:xlink="http://www.w3.org/1999/xlink" width="500" zoomAndPan="magnify" viewBox="0 0 375 374.999991" height="500" preserveAspectRatio="xMidYMid meet" version="1.0"><defs><clipPath id="61e768de8c"><path d="M 98.972656 58 L 275.972656 58 L 275.972656 317 L 98.972656 317 Z M 98.972656 58 " clip-rule="nonzero"/></clipPath></defs><g clip-path="url(#61e768de8c)"><path fill="#f37021" d="M 212.730469 149.894531 C 203.941406 147.386719 195.195312 154.023438 195.195312 163.167969 L 195.195312 303.929688 C 195.195312 311.785156 202.511719 317.667969 210.164062 315.859375 C 247.898438 306.972656 276.066406 273.019531 276.066406 232.605469 C 276.066406 193.484375 249.675781 160.421875 212.730469 149.894531 Z M 179.769531 142.429688 L 179.769531 303.929688 C 179.769531 311.785156 172.453125 317.667969 164.800781 315.859375 C 127.066406 306.976562 98.894531 273.019531 98.894531 232.605469 L 98.894531 68.105469 C 98.894531 61.933594 104.53125 57.289062 110.585938 58.464844 C 149.957031 66.113281 179.769531 100.855469 179.769531 142.429688 Z M 179.769531 142.429688 " fill-opacity="1" fill-rule="nonzero"/></g></svg>